<?xml version="1.0" encoding="utf-8" standalone="no"?>
<!DOCTYPE svg PUBLIC "-//W3C//DTD SVG 1.1//EN"
  "http://www.w3.org/Graphics/SVG/1.1/DTD/svg11.dtd">
<svg xmlns:xlink="http://www.w3.org/1999/xlink" width="512.39952pt" height="152.39952pt" viewBox="0 0 512.39952 152.39952" xmlns="http://www.w3.org/2000/svg" version="1.1">
 <metadata>
  <rdf:RDF xmlns:dc="http://purl.org/dc/elements/1.1/" xmlns:cc="http://creativecommons.org/ns#" xmlns:rdf="http://www.w3.org/1999/02/22-rdf-syntax-ns#">
   <cc:Work>
    <dc:type rdf:resource="http://purl.org/dc/dcmitype/StillImage"/>
    <dc:date>2024-04-29T14:20:24.598423</dc:date>
    <dc:format>image/svg+xml</dc:format>
    <dc:creator>
     <cc:Agent>
      <dc:title>Matplotlib v3.8.3, https://matplotlib.org/</dc:title>
     </cc:Agent>
    </dc:creator>
   </cc:Work>
  </rdf:RDF>
 </metadata>
 <defs>
  <style type="text/css">*{stroke-linejoin: round; stroke-linecap: butt}</style>
 </defs>
 <g id="figure_1">
  <g id="patch_1">
   <path d="M 0 152.39952 
L 512.39952 152.39952 
L 512.39952 0 
L 0 0 
z
"/>
  </g>
  <g id="axes_1">
   <g id="patch_2">
    <path d="M 41.556855 115.381203 
L 183.61737 115.381203 
L 183.61737 10.659249 
L 41.556855 10.659249 
z
"/>
   </g>
   <g id="patch_3">
    <path d="M 41.556855 115.381203 
L 41.556855 111.318714 
L 43.92453 111.318714 
L 43.92453 103.251247 
L 46.292205 103.251247 
L 46.292205 90.034488 
L 48.65988 90.034488 
L 48.65988 65.74196 
L 51.027556 65.74196 
L 51.027556 58.022649 
L 53.395231 58.022649 
L 53.395231 49.675214 
L 55.762906 49.675214 
L 55.762906 43.524501 
L 58.130581 43.524501 
L 58.130581 44.189712 
L 60.498257 44.189712 
L 60.498257 41.642679 
L 62.865932 41.642679 
L 62.865932 39.74397 
L 65.233607 39.74397 
L 65.233607 39.533493 
L 67.601282 39.533493 
L 67.601282 36.751687 
L 69.968958 36.751687 
L 69.968958 37.352584 
L 72.336633 37.352584 
L 72.336633 36.041296 
L 74.704308 36.041296 
L 74.704308 34.925371 
L 77.071984 34.925371 
L 77.071984 34.086979 
L 79.439659 34.086979 
L 79.439659 32.740445 
L 81.807334 32.740445 
L 81.807334 33.020773 
L 84.175009 33.020773 
L 84.175009 32.048129 
L 86.542685 32.048129 
L 86.542685 31.412075 
L 88.91036 31.412075 
L 88.91036 30.824472 
L 91.278035 30.824472 
L 91.278035 30.18906 
L 93.64571 30.18906 
L 93.64571 30.715161 
L 96.013386 30.715161 
L 96.013386 30.909222 
L 98.381061 30.909222 
L 98.381061 32.475241 
L 100.748736 32.475241 
L 100.748736 32.250224 
L 103.116411 32.250224 
L 103.116411 31.096353 
L 105.484087 31.096353 
L 105.484087 29.476317 
L 107.851762 29.476317 
L 107.851762 28.134285 
L 110.219437 28.134285 
L 110.219437 26.711541 
L 112.587112 26.711541 
L 112.587112 25.450911 
L 114.954788 25.450911 
L 114.954788 24.307683 
L 117.322463 24.307683 
L 117.322463 23.770803 
L 119.690138 23.770803 
L 119.690138 23.052021 
L 122.057814 23.052021 
L 122.057814 23.002723 
L 124.425489 23.002723 
L 124.425489 23.068302 
L 126.793164 23.068302 
L 126.793164 22.918009 
L 129.160839 22.918009 
L 129.160839 22.683471 
L 131.528515 22.683471 
L 131.528515 22.036255 
L 133.89619 22.036255 
L 133.89619 21.52298 
L 136.263865 21.52298 
L 136.263865 21.346589 
L 138.63154 21.346589 
L 138.63154 21.615 
L 140.999216 21.615 
L 140.999216 22.230862 
L 143.366891 22.230862 
L 143.366891 23.10169 
L 145.734566 23.10169 
L 145.734566 25.002522 
L 148.102241 25.002522 
L 148.102241 26.751296 
L 150.469917 26.751296 
L 150.469917 26.58558 
L 152.837592 26.58558 
L 152.837592 26.121317 
L 155.205267 26.121317 
L 155.205267 25.448221 
L 157.572942 25.448221 
L 157.572942 25.143321 
L 159.940618 25.143321 
L 159.940618 24.92068 
L 162.308293 24.92068 
L 162.308293 24.910361 
L 164.675968 24.910361 
L 164.675968 25.04349 
L 167.043644 25.04349 
L 167.043644 25.530865 
L 169.411319 25.530865 
L 169.411319 26.506513 
L 171.778994 26.506513 
L 171.778994 28.212389 
L 174.146669 28.212389 
L 174.146669 31.122689 
L 176.514345 31.122689 
L 176.514345 37.887861 
L 178.88202 37.887861 
L 178.88202 58.038325 
L 181.249695 58.038325 
L 181.249695 76.926628 
L 183.61737 76.926628 
L 183.61737 115.381203 
" clip-path="url(#p11cbf3468c)" style="fill: none; stroke: #8dd3c7; stroke-linejoin: miter"/>
   </g>
   <g id="patch_4">
    <path d="M 41.556855 115.381203 
L 41.556855 115.381049 
L 43.92453 115.381049 
L 43.92453 115.38069 
L 46.292205 115.38069 
L 46.292205 115.379904 
L 48.65988 115.379904 
L 48.65988 115.377929 
L 51.027556 115.377929 
L 51.027556 115.376886 
L 53.395231 115.376886 
L 53.395231 115.375415 
L 55.762906 115.375415 
L 55.762906 115.372679 
L 58.130581 115.372679 
L 58.130581 115.371183 
L 60.498257 115.371183 
L 60.498257 115.368832 
L 62.865932 115.368832 
L 62.865932 115.365951 
L 65.233607 115.365951 
L 65.233607 115.362787 
L 67.601282 115.362787 
L 67.601282 115.358299 
L 69.968958 115.358299 
L 69.968958 115.354862 
L 72.336633 115.354862 
L 72.336633 115.34892 
L 74.704308 115.34892 
L 74.704308 115.341858 
L 77.071984 115.341858 
L 77.071984 115.333736 
L 79.439659 115.333736 
L 79.439659 115.324023 
L 81.807334 115.324023 
L 81.807334 115.313627 
L 84.175009 115.313627 
L 84.175009 115.298494 
L 86.542685 115.298494 
L 86.542685 115.284515 
L 88.91036 115.284515 
L 88.91036 115.266339 
L 91.278035 115.266339 
L 91.278035 115.245785 
L 93.64571 115.245785 
L 93.64571 115.220051 
L 96.013386 115.220051 
L 96.013386 115.195248 
L 98.381061 115.195248 
L 98.381061 115.162768 
L 100.748736 115.162768 
L 100.748736 115.126843 
L 103.116411 115.126843 
L 103.116411 115.074373 
L 105.484087 115.074373 
L 105.484087 115.018484 
L 107.851762 115.018484 
L 107.851762 114.950848 
L 110.219437 114.950848 
L 110.219437 114.868276 
L 112.587112 114.868276 
L 112.587112 114.77865 
L 114.954788 114.77865 
L 114.954788 114.673267 
L 117.322463 114.673267 
L 117.322463 114.558812 
L 119.690138 114.558812 
L 119.690138 114.405047 
L 122.057814 114.405047 
L 122.057814 114.25589 
L 124.425489 114.25589 
L 124.425489 114.076595 
L 126.793164 114.076595 
L 126.793164 113.874276 
L 129.160839 113.874276 
L 129.160839 113.640418 
L 131.528515 113.640418 
L 131.528515 113.364538 
L 133.89619 113.364538 
L 133.89619 113.032059 
L 136.263865 113.032059 
L 136.263865 112.666006 
L 138.63154 112.666006 
L 138.63154 112.243533 
L 140.999216 112.243533 
L 140.999216 111.789769 
L 143.366891 111.789769 
L 143.366891 111.286785 
L 145.734566 111.286785 
L 145.734566 110.763264 
L 148.102241 110.763264 
L 148.102241 110.193576 
L 150.469917 110.193576 
L 150.469917 109.427604 
L 152.837592 109.427604 
L 152.837592 108.580436 
L 155.205267 108.580436 
L 155.205267 107.564336 
L 157.572942 107.564336 
L 157.572942 106.351945 
L 159.940618 106.351945 
L 159.940618 105.065462 
L 162.308293 105.065462 
L 162.308293 103.645041 
L 164.675968 103.645041 
L 164.675968 102.08691 
L 167.043644 102.08691 
L 167.043644 100.414616 
L 169.411319 100.414616 
L 169.411319 98.63233 
L 171.778994 98.63233 
L 171.778994 96.824763 
L 174.146669 96.824763 
L 174.146669 95.140183 
L 176.514345 95.140183 
L 176.514345 94.436812 
L 178.88202 94.436812 
L 178.88202 97.933867 
L 181.249695 97.933867 
L 181.249695 102.231108 
L 183.61737 102.231108 
L 183.61737 115.381203 
" clip-path="url(#p11cbf3468c)" style="fill: #7f7f7f; opacity: 0.2"/>
   </g>
   <g id="patch_5">
    <path d="M 41.556855 115.381203 
L 41.556855 115.381049 
L 43.92453 115.381049 
L 43.92453 115.38069 
L 46.292205 115.38069 
L 46.292205 115.379904 
L 48.65988 115.379904 
L 48.65988 115.377929 
L 51.027556 115.377929 
L 51.027556 115.376886 
L 53.395231 115.376886 
L 53.395231 115.375415 
L 55.762906 115.375415 
L 55.762906 115.372679 
L 58.130581 115.372679 
L 58.130581 115.371183 
L 60.498257 115.371183 
L 60.498257 115.368832 
L 62.865932 115.368832 
L 62.865932 115.365951 
L 65.233607 115.365951 
L 65.233607 115.362787 
L 67.601282 115.362787 
L 67.601282 115.358299 
L 69.968958 115.358299 
L 69.968958 115.354862 
L 72.336633 115.354862 
L 72.336633 115.34892 
L 74.704308 115.34892 
L 74.704308 115.341858 
L 77.071984 115.341858 
L 77.071984 115.333736 
L 79.439659 115.333736 
L 79.439659 115.324023 
L 81.807334 115.324023 
L 81.807334 115.313627 
L 84.175009 115.313627 
L 84.175009 115.298494 
L 86.542685 115.298494 
L 86.542685 115.284515 
L 88.91036 115.284515 
L 88.91036 115.266339 
L 91.278035 115.266339 
L 91.278035 115.245785 
L 93.64571 115.245785 
L 93.64571 115.220051 
L 96.013386 115.220051 
L 96.013386 115.195248 
L 98.381061 115.195248 
L 98.381061 115.162768 
L 100.748736 115.162768 
L 100.748736 115.126843 
L 103.116411 115.126843 
L 103.116411 115.074373 
L 105.484087 115.074373 
L 105.484087 115.018484 
L 107.851762 115.018484 
L 107.851762 114.950848 
L 110.219437 114.950848 
L 110.219437 114.868276 
L 112.587112 114.868276 
L 112.587112 114.77865 
L 114.954788 114.77865 
L 114.954788 114.673267 
L 117.322463 114.673267 
L 117.322463 114.558812 
L 119.690138 114.558812 
L 119.690138 114.405047 
L 122.057814 114.405047 
L 122.057814 114.25589 
L 124.425489 114.25589 
L 124.425489 114.076595 
L 126.793164 114.076595 
L 126.793164 113.874276 
L 129.160839 113.874276 
L 129.160839 113.640418 
L 131.528515 113.640418 
L 131.528515 113.364538 
L 133.89619 113.364538 
L 133.89619 113.032059 
L 136.263865 113.032059 
L 136.263865 112.666006 
L 138.63154 112.666006 
L 138.63154 112.243533 
L 140.999216 112.243533 
L 140.999216 111.789769 
L 143.366891 111.789769 
L 143.366891 111.286785 
L 145.734566 111.286785 
L 145.734566 110.763264 
L 148.102241 110.763264 
L 148.102241 110.193576 
L 150.469917 110.193576 
L 150.469917 109.427604 
L 152.837592 109.427604 
L 152.837592 108.580436 
L 155.205267 108.580436 
L 155.205267 107.564336 
L 157.572942 107.564336 
L 157.572942 106.351945 
L 159.940618 106.351945 
L 159.940618 105.065462 
L 162.308293 105.065462 
L 162.308293 103.645041 
L 164.675968 103.645041 
L 164.675968 102.08691 
L 167.043644 102.08691 
L 167.043644 100.414616 
L 169.411319 100.414616 
L 169.411319 98.63233 
L 171.778994 98.63233 
L 171.778994 96.824763 
L 174.146669 96.824763 
L 174.146669 95.140183 
L 176.514345 95.140183 
L 176.514345 94.436812 
L 178.88202 94.436812 
L 178.88202 97.933867 
L 181.249695 97.933867 
L 181.249695 102.231108 
L 183.61737 102.231108 
L 183.61737 115.381203 
" clip-path="url(#p11cbf3468c)" style="fill: none; opacity: 0.2; stroke: #7f7f7f; stroke-linejoin: miter"/>
   </g>
   <g id="matplotlib.axis_1">
    <g id="xtick_1">
     <g id="line2d_1">
      <path d="M 55.762906 115.381203 
L 55.762906 10.659249 
" clip-path="url(#p11cbf3468c)" style="fill: none; stroke: #808080; stroke-opacity: 0.2; stroke-width: 0.8; stroke-linecap: square"/>
     </g>
     <g id="line2d_2">
      <defs>
       <path id="mc51aeadadf" d="M 0 0 
L 0 3.5 
" style="stroke: #ffffff; stroke-width: 0.8"/>
      </defs>
      <g>
       <use xlink:href="#mc51aeadadf" x="55.762906" y="115.381203" style="fill: #ffffff; stroke: #ffffff; stroke-width: 0.8"/>
      </g>
     </g>
     <g id="text_1">
      <!-- $\mathdefault{6}$ -->
      <g style="fill: #ffffff" transform="translate(53.272239 129.299702) scale(0.1 -0.1)">
       <defs>
        <path id="CMR17-36" d="M 678 2176 
C 678 3690 1395 4032 1811 4032 
C 1946 4032 2272 4009 2400 3776 
C 2298 3776 2106 3776 2106 3553 
C 2106 3381 2246 3323 2336 3323 
C 2394 3323 2566 3348 2566 3560 
C 2566 3954 2246 4179 1805 4179 
C 1043 4179 243 3390 243 1984 
C 243 253 966 -128 1478 -128 
C 2099 -128 2688 427 2688 1283 
C 2688 2081 2170 2662 1517 2662 
C 1126 2662 838 2407 678 1960 
L 678 2176 
z
M 1478 25 
C 691 25 691 1200 691 1436 
C 691 1896 909 2560 1504 2560 
C 1613 2560 1926 2560 2138 2120 
C 2253 1870 2253 1609 2253 1289 
C 2253 944 2253 690 2118 434 
C 1978 171 1773 25 1478 25 
z
" transform="scale(0.015625)"/>
       </defs>
       <use xlink:href="#CMR17-36" transform="scale(0.996264)"/>
      </g>
     </g>
    </g>
    <g id="xtick_2">
     <g id="line2d_3">
      <path d="M 84.175009 115.381203 
L 84.175009 10.659249 
" clip-path="url(#p11cbf3468c)" style="fill: none; stroke: #808080; stroke-opacity: 0.2; stroke-width: 0.8; stroke-linecap: square"/>
     </g>
     <g id="line2d_4">
      <g>
       <use xlink:href="#mc51aeadadf" x="84.175009" y="115.381203" style="fill: #ffffff; stroke: #ffffff; stroke-width: 0.8"/>
      </g>
     </g>
     <g id="text_2">
      <!-- $\mathdefault{8}$ -->
      <g style="fill: #ffffff" transform="translate(81.684342 129.299702) scale(0.1 -0.1)">
       <defs>
        <path id="CMR17-38" d="M 1741 2264 
C 2144 2467 2554 2773 2554 3263 
C 2554 3841 1990 4179 1472 4179 
C 890 4179 378 3759 378 3180 
C 378 3021 416 2747 666 2505 
C 730 2442 998 2251 1171 2130 
C 883 1983 211 1634 211 934 
C 211 279 838 -128 1459 -128 
C 2144 -128 2720 362 2720 1010 
C 2720 1590 2330 1857 2074 2029 
L 1741 2264 
z
M 902 2822 
C 851 2854 595 3051 595 3351 
C 595 3739 998 4032 1459 4032 
C 1965 4032 2336 3676 2336 3262 
C 2336 2669 1670 2331 1638 2331 
C 1632 2331 1626 2331 1574 2370 
L 902 2822 
z
M 2080 1519 
C 2176 1449 2483 1240 2483 851 
C 2483 381 2010 25 1472 25 
C 890 25 448 438 448 940 
C 448 1443 838 1862 1280 2060 
L 2080 1519 
z
" transform="scale(0.015625)"/>
       </defs>
       <use xlink:href="#CMR17-38" transform="scale(0.996264)"/>
      </g>
     </g>
    </g>
    <g id="xtick_3">
     <g id="line2d_5">
      <path d="M 112.587112 115.381203 
L 112.587112 10.659249 
" clip-path="url(#p11cbf3468c)" style="fill: none; stroke: #808080; stroke-opacity: 0.2; stroke-width: 0.8; stroke-linecap: square"/>
     </g>
     <g id="line2d_6">
      <g>
       <use xlink:href="#mc51aeadadf" x="112.587112" y="115.381203" style="fill: #ffffff; stroke: #ffffff; stroke-width: 0.8"/>
      </g>
     </g>
     <g id="text_3">
      <!-- $\mathdefault{10}$ -->
      <g style="fill: #ffffff" transform="translate(107.605777 129.299702) scale(0.1 -0.1)">
       <defs>
        <path id="CMR17-31" d="M 1702 4058 
C 1702 4192 1696 4192 1606 4192 
C 1357 3916 979 3827 621 3827 
C 602 3827 570 3827 563 3808 
C 557 3795 557 3782 557 3648 
C 755 3648 1088 3686 1344 3839 
L 1344 461 
C 1344 236 1331 160 781 160 
L 589 160 
L 589 0 
C 896 0 1216 0 1523 0 
C 1830 0 2150 0 2458 0 
L 2458 160 
L 2266 160 
C 1715 160 1702 230 1702 458 
L 1702 4058 
z
" transform="scale(0.015625)"/>
        <path id="CMR17-30" d="M 2688 2025 
C 2688 2416 2682 3080 2413 3591 
C 2176 4039 1798 4198 1466 4198 
C 1158 4198 768 4058 525 3597 
C 269 3118 243 2524 243 2025 
C 243 1661 250 1106 448 619 
C 723 -39 1216 -128 1466 -128 
C 1760 -128 2208 -7 2470 600 
C 2662 1042 2688 1559 2688 2025 
z
M 1466 -26 
C 1056 -26 813 325 723 812 
C 653 1188 653 1738 653 2096 
C 653 2588 653 2997 736 3387 
C 858 3929 1216 4096 1466 4096 
C 1728 4096 2067 3923 2189 3400 
C 2272 3036 2278 2607 2278 2096 
C 2278 1680 2278 1169 2202 792 
C 2067 95 1690 -26 1466 -26 
z
" transform="scale(0.015625)"/>
       </defs>
       <use xlink:href="#CMR17-31" transform="scale(0.996264)"/>
       <use xlink:href="#CMR17-30" transform="translate(45.690477 0) scale(0.996264)"/>
      </g>
     </g>
    </g>
    <g id="xtick_4">
     <g id="line2d_7">
      <path d="M 140.999216 115.381203 
L 140.999216 10.659249 
" clip-path="url(#p11cbf3468c)" style="fill: none; stroke: #808080; stroke-opacity: 0.2; stroke-width: 0.8; stroke-linecap: square"/>
     </g>
     <g id="line2d_8">
      <g>
       <use xlink:href="#mc51aeadadf" x="140.999216" y="115.381203" style="fill: #ffffff; stroke: #ffffff; stroke-width: 0.8"/>
      </g>
     </g>
     <g id="text_4">
      <!-- $\mathdefault{12}$ -->
      <g style="fill: #ffffff" transform="translate(136.01788 129.299702) scale(0.1 -0.1)">
       <defs>
        <path id="CMR17-32" d="M 2669 989 
L 2554 989 
C 2490 536 2438 459 2413 420 
C 2381 369 1920 369 1830 369 
L 602 369 
C 832 619 1280 1072 1824 1597 
C 2214 1967 2669 2402 2669 3035 
C 2669 3790 2067 4224 1395 4224 
C 691 4224 262 3604 262 3030 
C 262 2780 448 2748 525 2748 
C 589 2748 781 2787 781 3010 
C 781 3207 614 3264 525 3264 
C 486 3264 448 3258 422 3245 
C 544 3790 915 4058 1306 4058 
C 1862 4058 2227 3617 2227 3035 
C 2227 2479 1901 2000 1536 1584 
L 262 146 
L 262 0 
L 2515 0 
L 2669 989 
z
" transform="scale(0.015625)"/>
       </defs>
       <use xlink:href="#CMR17-31" transform="scale(0.996264)"/>
       <use xlink:href="#CMR17-32" transform="translate(45.690477 0) scale(0.996264)"/>
      </g>
     </g>
    </g>
    <g id="xtick_5">
     <g id="line2d_9">
      <path d="M 169.411319 115.381203 
L 169.411319 10.659249 
" clip-path="url(#p11cbf3468c)" style="fill: none; stroke: #808080; stroke-opacity: 0.2; stroke-width: 0.8; stroke-linecap: square"/>
     </g>
     <g id="line2d_10">
      <g>
       <use xlink:href="#mc51aeadadf" x="169.411319" y="115.381203" style="fill: #ffffff; stroke: #ffffff; stroke-width: 0.8"/>
      </g>
     </g>
     <g id="text_5">
      <!-- $\mathdefault{14}$ -->
      <g style="fill: #ffffff" transform="translate(164.429984 129.299702) scale(0.1 -0.1)">
       <defs>
        <path id="CMR17-34" d="M 2150 4122 
C 2150 4256 2144 4256 2029 4256 
L 128 1254 
L 128 1088 
L 1779 1088 
L 1779 457 
C 1779 224 1766 160 1318 160 
L 1197 160 
L 1197 0 
C 1402 0 1747 0 1965 0 
C 2182 0 2528 0 2733 0 
L 2733 160 
L 2611 160 
C 2163 160 2150 224 2150 457 
L 2150 1088 
L 2803 1088 
L 2803 1254 
L 2150 1254 
L 2150 4122 
z
M 1798 3703 
L 1798 1254 
L 256 1254 
L 1798 3703 
z
" transform="scale(0.015625)"/>
       </defs>
       <use xlink:href="#CMR17-31" transform="scale(0.996264)"/>
       <use xlink:href="#CMR17-34" transform="translate(45.690477 0) scale(0.996264)"/>
      </g>
     </g>
    </g>
    <g id="text_6">
     <!-- $G$ -->
     <g style="fill: #ffffff" transform="translate(108.670556 142.155378) scale(0.1 -0.1)">
      <defs>
       <path id="CMMI12-47" d="M 4774 4423 
C 4774 4480 4730 4480 4717 4480 
C 4704 4480 4678 4480 4627 4416 
L 4186 3889 
C 4154 3940 4026 4163 3776 4309 
C 3501 4480 3226 4480 3130 4480 
C 1760 4480 320 3095 320 1595 
C 320 546 1050 -128 2010 -128 
C 2470 -128 3053 25 3373 427 
C 3443 185 3584 12 3629 12 
C 3661 12 3667 32 3674 32 
C 3680 44 3731 270 3763 385 
L 3866 797 
C 3917 1009 3942 1099 3987 1291 
C 4051 1536 4064 1536 4416 1536 
C 4442 1536 4518 1536 4518 1666 
C 4518 1734 4454 1734 4435 1734 
C 4326 1734 4205 1734 4090 1734 
L 3744 1734 
C 3475 1734 3194 1734 2931 1734 
C 2874 1734 2797 1734 2797 1611 
C 2797 1542 2848 1542 2848 1536 
L 3008 1536 
C 3514 1536 3514 1489 3514 1402 
C 3514 1395 3392 751 3270 561 
C 3027 204 2522 57 2144 57 
C 1651 57 851 312 851 1410 
C 851 1836 1005 2808 1626 3526 
C 2029 3984 2624 4295 3187 4295 
C 3942 4295 4211 3655 4211 3071 
C 4211 2970 4186 2831 4186 2742 
C 4186 2685 4250 2685 4269 2685 
C 4339 2685 4346 2691 4371 2805 
L 4774 4423 
z
" transform="scale(0.015625)"/>
      </defs>
      <use xlink:href="#CMMI12-47" transform="scale(0.996264)"/>
     </g>
    </g>
   </g>
   <g id="matplotlib.axis_2">
    <g id="ytick_1">
     <g id="line2d_11">
      <path d="M 41.556855 115.381203 
L 183.61737 115.381203 
" clip-path="url(#p11cbf3468c)" style="fill: none; stroke: #808080; stroke-opacity: 0.2; stroke-width: 0.8; stroke-linecap: square"/>
     </g>
     <g id="line2d_12">
      <defs>
       <path id="m0f64fdd5b8" d="M 0 0 
L -3.5 0 
" style="stroke: #ffffff; stroke-width: 0.8"/>
      </defs>
      <g>
       <use xlink:href="#m0f64fdd5b8" x="41.556855" y="115.381203" style="fill: #ffffff; stroke: #ffffff; stroke-width: 0.8"/>
      </g>
     </g>
     <g id="text_7">
      <!-- $\mathdefault{0.0}$ -->
      <g style="fill: #ffffff" transform="translate(21.826776 118.840452) scale(0.1 -0.1)">
       <defs>
        <path id="CMMI12-3a" d="M 1178 307 
C 1178 492 1024 619 870 619 
C 685 619 557 466 557 313 
C 557 128 710 0 864 0 
C 1050 0 1178 153 1178 307 
z
" transform="scale(0.015625)"/>
       </defs>
       <use xlink:href="#CMR17-30" transform="scale(0.996264)"/>
       <use xlink:href="#CMMI12-3a" transform="translate(45.690477 0) scale(0.996264)"/>
       <use xlink:href="#CMR17-30" transform="translate(72.787654 0) scale(0.996264)"/>
      </g>
     </g>
    </g>
    <g id="ytick_2">
     <g id="line2d_13">
      <path d="M 41.556855 94.436812 
L 183.61737 94.436812 
" clip-path="url(#p11cbf3468c)" style="fill: none; stroke: #808080; stroke-opacity: 0.2; stroke-width: 0.8; stroke-linecap: square"/>
     </g>
     <g id="line2d_14">
      <g>
       <use xlink:href="#m0f64fdd5b8" x="41.556855" y="94.436812" style="fill: #ffffff; stroke: #ffffff; stroke-width: 0.8"/>
      </g>
     </g>
     <g id="text_8">
      <!-- $\mathdefault{0.2}$ -->
      <g style="fill: #ffffff" transform="translate(21.826776 97.896062) scale(0.1 -0.1)">
       <use xlink:href="#CMR17-30" transform="scale(0.996264)"/>
       <use xlink:href="#CMMI12-3a" transform="translate(45.690477 0) scale(0.996264)"/>
       <use xlink:href="#CMR17-32" transform="translate(72.787654 0) scale(0.996264)"/>
      </g>
     </g>
    </g>
    <g id="ytick_3">
     <g id="line2d_15">
      <path d="M 41.556855 73.492422 
L 183.61737 73.492422 
" clip-path="url(#p11cbf3468c)" style="fill: none; stroke: #808080; stroke-opacity: 0.2; stroke-width: 0.8; stroke-linecap: square"/>
     </g>
     <g id="line2d_16">
      <g>
       <use xlink:href="#m0f64fdd5b8" x="41.556855" y="73.492422" style="fill: #ffffff; stroke: #ffffff; stroke-width: 0.8"/>
      </g>
     </g>
     <g id="text_9">
      <!-- $\mathdefault{0.4}$ -->
      <g style="fill: #ffffff" transform="translate(21.826776 76.951671) scale(0.1 -0.1)">
       <use xlink:href="#CMR17-30" transform="scale(0.996264)"/>
       <use xlink:href="#CMMI12-3a" transform="translate(45.690477 0) scale(0.996264)"/>
       <use xlink:href="#CMR17-34" transform="translate(72.787654 0) scale(0.996264)"/>
      </g>
     </g>
    </g>
    <g id="ytick_4">
     <g id="line2d_17">
      <path d="M 41.556855 52.548031 
L 183.61737 52.548031 
" clip-path="url(#p11cbf3468c)" style="fill: none; stroke: #808080; stroke-opacity: 0.2; stroke-width: 0.8; stroke-linecap: square"/>
     </g>
     <g id="line2d_18">
      <g>
       <use xlink:href="#m0f64fdd5b8" x="41.556855" y="52.548031" style="fill: #ffffff; stroke: #ffffff; stroke-width: 0.8"/>
      </g>
     </g>
     <g id="text_10">
      <!-- $\mathdefault{0.6}$ -->
      <g style="fill: #ffffff" transform="translate(21.826776 56.00728) scale(0.1 -0.1)">
       <use xlink:href="#CMR17-30" transform="scale(0.996264)"/>
       <use xlink:href="#CMMI12-3a" transform="translate(45.690477 0) scale(0.996264)"/>
       <use xlink:href="#CMR17-36" transform="translate(72.787654 0) scale(0.996264)"/>
      </g>
     </g>
    </g>
    <g id="ytick_5">
     <g id="line2d_19">
      <path d="M 41.556855 31.60364 
L 183.61737 31.60364 
" clip-path="url(#p11cbf3468c)" style="fill: none; stroke: #808080; stroke-opacity: 0.2; stroke-width: 0.8; stroke-linecap: square"/>
     </g>
     <g id="line2d_20">
      <g>
       <use xlink:href="#m0f64fdd5b8" x="41.556855" y="31.60364" style="fill: #ffffff; stroke: #ffffff; stroke-width: 0.8"/>
      </g>
     </g>
     <g id="text_11">
      <!-- $\mathdefault{0.8}$ -->
      <g style="fill: #ffffff" transform="translate(21.826776 35.062889) scale(0.1 -0.1)">
       <use xlink:href="#CMR17-30" transform="scale(0.996264)"/>
       <use xlink:href="#CMMI12-3a" transform="translate(45.690477 0) scale(0.996264)"/>
       <use xlink:href="#CMR17-38" transform="translate(72.787654 0) scale(0.996264)"/>
      </g>
     </g>
    </g>
    <g id="ytick_6">
     <g id="line2d_21">
      <path d="M 41.556855 10.659249 
L 183.61737 10.659249 
" clip-path="url(#p11cbf3468c)" style="fill: none; stroke: #808080; stroke-opacity: 0.2; stroke-width: 0.8; stroke-linecap: square"/>
     </g>
     <g id="line2d_22">
      <g>
       <use xlink:href="#m0f64fdd5b8" x="41.556855" y="10.659249" style="fill: #ffffff; stroke: #ffffff; stroke-width: 0.8"/>
      </g>
     </g>
     <g id="text_12">
      <!-- $\mathdefault{1.0}$ -->
      <g style="fill: #ffffff" transform="translate(21.826776 14.118498) scale(0.1 -0.1)">
       <use xlink:href="#CMR17-31" transform="scale(0.996264)"/>
       <use xlink:href="#CMMI12-3a" transform="translate(45.690477 0) scale(0.996264)"/>
       <use xlink:href="#CMR17-30" transform="translate(72.787654 0) scale(0.996264)"/>
      </g>
     </g>
    </g>
    <g id="text_13">
     <!-- $\mathrm{completeness}$ -->
     <g style="fill: #ffffff" transform="translate(15.50218 96.252204) rotate(-90) scale(0.12 -0.12)">
      <defs>
       <path id="CMR17-63" d="M 2234 2240 
C 2112 2240 1933 2240 1933 2017 
C 1933 1838 2080 1787 2163 1787 
C 2208 1787 2394 1807 2394 2024 
C 2394 2467 1958 2803 1466 2803 
C 787 2803 211 2178 211 1363 
C 211 516 813 -64 1466 -64 
C 2259 -64 2458 677 2458 748 
C 2458 774 2451 793 2406 793 
C 2362 793 2355 787 2330 703 
C 2163 180 1798 51 1523 51 
C 1114 51 621 427 621 1369 
C 621 2338 1094 2688 1472 2688 
C 1722 2688 2093 2573 2234 2240 
z
" transform="scale(0.015625)"/>
       <path id="CMR17-6f" d="M 2758 1356 
C 2758 2176 2163 2816 1466 2816 
C 768 2816 173 2176 173 1356 
C 173 551 768 -64 1466 -64 
C 2163 -64 2758 551 2758 1356 
z
M 1466 51 
C 1165 51 909 230 762 480 
C 602 767 582 1126 582 1408 
C 582 1677 595 2010 762 2298 
C 890 2509 1139 2714 1466 2714 
C 1754 2714 1997 2554 2150 2330 
C 2349 2029 2349 1607 2349 1408 
C 2349 1158 2336 775 2163 467 
C 1984 173 1709 51 1466 51 
z
" transform="scale(0.015625)"/>
       <path id="CMR17-6d" d="M 4326 1933 
C 4326 2252 4269 2790 3507 2790 
C 3072 2790 2771 2496 2656 2151 
L 2650 2151 
C 2573 2676 2195 2790 1837 2790 
C 1331 2790 1069 2400 973 2144 
L 966 2144 
L 966 2790 
L 211 2720 
L 211 2554 
C 589 2554 646 2515 646 2208 
L 646 428 
C 646 184 621 153 211 153 
L 211 -13 
C 365 0 646 0 813 0 
C 979 0 1267 0 1421 -13 
L 1421 153 
C 1011 153 986 178 986 428 
L 986 1658 
C 986 2247 1344 2688 1792 2688 
C 2266 2688 2317 2266 2317 1958 
L 2317 428 
C 2317 184 2291 153 1882 153 
L 1882 -13 
C 2035 0 2317 0 2483 0 
C 2650 0 2938 0 3091 -13 
L 3091 153 
C 2682 153 2656 178 2656 428 
L 2656 1658 
C 2656 2247 3014 2688 3462 2688 
C 3936 2688 3987 2266 3987 1958 
L 3987 428 
C 3987 184 3962 153 3552 153 
L 3552 -13 
C 3706 0 3987 0 4154 0 
C 4320 0 4608 0 4762 -13 
L 4762 153 
C 4352 153 4326 178 4326 428 
L 4326 1933 
z
" transform="scale(0.015625)"/>
       <path id="CMR17-70" d="M 1408 -1063 
C 998 -1063 973 -1037 973 -789 
L 973 402 
C 1158 134 1427 -38 1766 -38 
C 2406 -38 3053 523 3053 1388 
C 3053 2191 2496 2802 1837 2802 
C 1453 2802 1139 2592 960 2338 
L 960 2802 
L 198 2732 
L 198 2567 
C 576 2567 634 2528 634 2223 
L 634 -789 
C 634 -1031 608 -1063 198 -1063 
L 198 -1228 
C 352 -1216 634 -1216 800 -1216 
C 966 -1216 1254 -1216 1408 -1228 
L 1408 -1063 
z
M 973 2012 
C 973 2102 973 2235 1222 2471 
C 1254 2497 1472 2688 1792 2688 
C 2259 2688 2643 2108 2643 1382 
C 2643 656 2234 64 1728 64 
C 1498 64 1248 172 1056 472 
C 973 612 973 650 973 752 
L 973 2012 
z
" transform="scale(0.015625)"/>
       <path id="CMR17-6c" d="M 979 4396 
L 218 4326 
L 218 4160 
C 595 4160 653 4122 653 3817 
L 653 426 
C 653 184 627 153 218 153 
L 218 -13 
C 371 0 653 0 813 0 
C 979 0 1261 0 1414 -13 
L 1414 153 
C 1005 153 979 178 979 426 
L 979 4396 
z
" transform="scale(0.015625)"/>
       <path id="CMR17-65" d="M 2438 1472 
C 2464 1498 2464 1511 2464 1576 
C 2464 2238 2118 2816 1389 2816 
C 710 2816 173 2169 173 1383 
C 173 551 781 -64 1459 -64 
C 2176 -64 2458 607 2458 740 
C 2458 784 2419 784 2406 784 
C 2362 784 2355 771 2330 696 
C 2189 265 1837 51 1504 51 
C 1229 51 954 203 781 480 
C 582 803 582 1176 582 1472 
L 2438 1472 
z
M 589 1568 
C 634 2505 1126 2714 1382 2714 
C 1818 2714 2112 2297 2118 1568 
L 589 1568 
z
" transform="scale(0.015625)"/>
       <path id="CMR17-74" d="M 966 2560 
L 1862 2560 
L 1862 2725 
L 966 2725 
L 966 3904 
L 851 3904 
C 838 3245 614 2668 70 2668 
L 70 2560 
L 627 2560 
L 627 771 
C 627 650 627 -64 1370 -64 
C 1747 -64 1965 306 1965 777 
L 1965 1140 
L 1850 1140 
L 1850 783 
C 1850 344 1677 51 1408 51 
C 1222 51 966 178 966 758 
L 966 2560 
z
" transform="scale(0.015625)"/>
       <path id="CMR17-6e" d="M 2656 1933 
C 2656 2259 2592 2790 1837 2790 
C 1331 2790 1069 2400 973 2144 
L 966 2144 
L 966 2790 
L 211 2720 
L 211 2554 
C 589 2554 646 2515 646 2208 
L 646 428 
C 646 184 621 153 211 153 
L 211 -13 
C 365 0 646 0 813 0 
C 979 0 1267 0 1421 -13 
L 1421 153 
C 1011 153 986 178 986 428 
L 986 1658 
C 986 2247 1344 2688 1792 2688 
C 2266 2688 2317 2266 2317 1958 
L 2317 428 
C 2317 184 2291 153 1882 153 
L 1882 -13 
C 2035 0 2317 0 2483 0 
C 2650 0 2938 0 3091 -13 
L 3091 153 
C 2682 153 2656 178 2656 428 
L 2656 1933 
z
" transform="scale(0.015625)"/>
       <path id="CMR17-73" d="M 1978 2697 
C 1978 2813 1971 2819 1933 2819 
C 1907 2819 1901 2813 1824 2717 
C 1805 2691 1747 2626 1728 2601 
C 1523 2819 1235 2819 1126 2819 
C 416 2819 160 2447 160 2076 
C 160 1498 813 1365 998 1325 
C 1402 1243 1542 1217 1677 1101 
C 1760 1025 1901 884 1901 654 
C 1901 384 1747 38 1158 38 
C 602 38 403 460 288 1021 
C 269 1110 269 1117 218 1117 
C 166 1117 160 1110 160 983 
L 160 63 
C 160 -51 166 -58 205 -58 
C 237 -58 243 -51 275 0 
C 314 57 410 211 448 276 
C 576 103 800 -64 1158 -64 
C 1792 -64 2131 283 2131 784 
C 2131 1112 1958 1285 1875 1362 
C 1683 1561 1459 1606 1190 1657 
C 838 1735 390 1825 390 2217 
C 390 2383 480 2737 1126 2737 
C 1811 2737 1850 2094 1862 1888 
C 1869 1856 1901 1849 1920 1849 
C 1978 1849 1978 1869 1978 1978 
L 1978 2697 
z
" transform="scale(0.015625)"/>
      </defs>
      <use xlink:href="#CMR17-63" transform="scale(0.996264)"/>
      <use xlink:href="#CMR17-6f" transform="translate(40.48566 0) scale(0.996264)"/>
      <use xlink:href="#CMR17-6d" transform="translate(86.176138 0) scale(0.996264)"/>
      <use xlink:href="#CMR17-70" transform="translate(163.095727 0) scale(0.996264)"/>
      <use xlink:href="#CMR17-6c" transform="translate(213.991097 0) scale(0.996264)"/>
      <use xlink:href="#CMR17-65" transform="translate(238.862156 0) scale(0.996264)"/>
      <use xlink:href="#CMR17-74" transform="translate(279.347816 0) scale(0.996264)"/>
      <use xlink:href="#CMR17-65" transform="translate(314.628584 0) scale(0.996264)"/>
      <use xlink:href="#CMR17-6e" transform="translate(355.114244 0) scale(0.996264)"/>
      <use xlink:href="#CMR17-65" transform="translate(406.009614 0) scale(0.996264)"/>
      <use xlink:href="#CMR17-73" transform="translate(446.495275 0) scale(0.996264)"/>
      <use xlink:href="#CMR17-73" transform="translate(482.296612 0) scale(0.996264)"/>
     </g>
    </g>
   </g>
   <g id="patch_6">
    <path d="M 41.556855 115.381203 
L 41.556855 10.659249 
" style="fill: none; stroke: #ffffff; stroke-width: 0.8; stroke-linejoin: miter; stroke-linecap: square"/>
   </g>
   <g id="patch_7">
    <path d="M 183.61737 115.381203 
L 183.61737 10.659249 
" style="fill: none; stroke: #ffffff; stroke-width: 0.8; stroke-linejoin: miter; stroke-linecap: square"/>
   </g>
   <g id="patch_8">
    <path d="M 41.556855 115.381203 
L 183.61737 115.381203 
" style="fill: none; stroke: #ffffff; stroke-width: 0.8; stroke-linejoin: miter; stroke-linecap: square"/>
   </g>
   <g id="patch_9">
    <path d="M 41.556855 10.659249 
L 183.61737 10.659249 
" style="fill: none; stroke: #ffffff; stroke-width: 0.8; stroke-linejoin: miter; stroke-linecap: square"/>
   </g>
  </g>
  <g id="axes_2">
   <g id="patch_10">
    <path d="M 195.98289 115.381203 
L 338.043406 115.381203 
L 338.043406 10.659249 
L 195.98289 10.659249 
z
"/>
   </g>
   <g id="patch_11">
    <path d="M 195.98289 115.381203 
L 195.98289 77.305698 
L 198.350565 77.305698 
L 198.350565 76.72089 
L 200.71824 76.72089 
L 200.71824 78.023767 
L 203.085916 78.023767 
L 203.085916 79.828788 
L 205.453591 79.828788 
L 205.453591 82.384125 
L 207.821266 82.384125 
L 207.821266 84.439324 
L 210.188941 84.439324 
L 210.188941 86.217681 
L 212.556617 86.217681 
L 212.556617 87.089735 
L 214.924292 87.089735 
L 214.924292 86.905622 
L 217.291967 86.905622 
L 217.291967 83.514271 
L 219.659643 83.514271 
L 219.659643 73.478974 
L 222.027318 73.478974 
L 222.027318 58.295372 
L 224.394993 58.295372 
L 224.394993 46.696318 
L 226.762668 46.696318 
L 226.762668 43.128124 
L 229.130344 43.128124 
L 229.130344 43.467721 
L 231.498019 43.467721 
L 231.498019 44.922163 
L 233.865694 44.922163 
L 233.865694 46.54849 
L 236.233369 46.54849 
L 236.233369 47.020215 
L 238.601045 47.020215 
L 238.601045 44.994347 
L 240.96872 44.994347 
L 240.96872 39.867212 
L 243.336395 39.867212 
L 243.336395 34.206527 
L 245.70407 34.206527 
L 245.70407 29.054856 
L 248.071746 29.054856 
L 248.071746 25.561726 
L 250.439421 25.561726 
L 250.439421 24.070106 
L 252.807096 24.070106 
L 252.807096 20.777351 
L 255.174771 20.777351 
L 255.174771 19.693653 
L 257.542447 19.693653 
L 257.542447 19.446106 
L 259.910122 19.446106 
L 259.910122 19.481498 
L 262.277797 19.481498 
L 262.277797 19.683276 
L 264.645473 19.683276 
L 264.645473 19.900262 
L 267.013148 19.900262 
L 267.013148 20.311675 
L 269.380823 20.311675 
L 269.380823 20.653812 
L 271.748498 20.653812 
L 271.748498 21.019727 
L 274.116174 21.019727 
L 274.116174 21.479139 
L 276.483849 21.479139 
L 276.483849 21.854003 
L 278.851524 21.854003 
L 278.851524 22.661516 
L 281.219199 22.661516 
L 281.219199 23.40743 
L 283.586875 23.40743 
L 283.586875 24.055241 
L 285.95455 24.055241 
L 285.95455 24.396891 
L 288.322225 24.396891 
L 288.322225 24.571618 
L 290.6899 24.571618 
L 290.6899 25.49778 
L 293.057576 25.49778 
L 293.057576 28.589037 
L 295.425251 28.589037 
L 295.425251 35.890691 
L 297.792926 35.890691 
L 297.792926 51.454765 
L 300.160601 51.454765 
L 300.160601 70.042307 
L 302.528277 70.042307 
L 302.528277 85.639225 
L 304.895952 85.639225 
L 304.895952 100.577099 
L 307.263627 100.577099 
L 307.263627 107.720536 
L 309.631303 107.720536 
L 309.631303 109.30335 
L 311.998978 109.30335 
L 311.998978 107.898094 
L 314.366653 107.898094 
L 314.366653 106.395347 
L 316.734328 106.395347 
L 316.734328 106.460981 
L 319.102004 106.460981 
L 319.102004 107.013798 
L 321.469679 107.013798 
L 321.469679 108.546474 
L 323.837354 108.546474 
L 323.837354 108.940739 
L 326.205029 108.940739 
L 326.205029 108.880008 
L 328.572705 108.880008 
L 328.572705 105.83987 
L 330.94038 105.83987 
L 330.94038 105.618987 
L 333.308055 105.618987 
L 333.308055 106.682255 
L 335.67573 106.682255 
L 335.67573 106.256054 
L 338.043406 106.256054 
L 338.043406 115.381203 
" clip-path="url(#pb1da8059a2)" style="fill: none; stroke: #8dd3c7; stroke-linejoin: miter"/>
   </g>
   <g id="patch_12">
    <path d="M 195.98289 115.381203 
L 195.98289 115.330963 
L 198.350565 115.330963 
L 198.350565 115.300117 
L 200.71824 115.300117 
L 200.71824 115.2687 
L 203.085916 115.2687 
L 203.085916 115.235674 
L 205.453591 115.235674 
L 205.453591 115.200986 
L 207.821266 115.200986 
L 207.821266 115.153908 
L 210.188941 115.153908 
L 210.188941 115.104596 
L 212.556617 115.104596 
L 212.556617 115.032501 
L 214.924292 115.032501 
L 214.924292 114.923073 
L 217.291967 114.923073 
L 217.291967 114.703797 
L 219.659643 114.703797 
L 219.659643 114.103257 
L 222.027318 114.103257 
L 222.027318 112.456307 
L 224.394993 112.456307 
L 224.394993 108.749608 
L 226.762668 108.749608 
L 226.762668 103.345729 
L 229.130344 103.345729 
L 229.130344 97.322628 
L 231.498019 97.322628 
L 231.498019 94.436812 
L 233.865694 94.436812 
L 233.865694 95.914154 
L 236.233369 95.914154 
L 236.233369 98.730615 
L 238.601045 98.730615 
L 238.601045 100.268494 
L 240.96872 100.268494 
L 240.96872 99.951748 
L 243.336395 99.951748 
L 243.336395 99.307714 
L 245.70407 99.307714 
L 245.70407 99.363933 
L 248.071746 99.363933 
L 248.071746 100.385616 
L 250.439421 100.385616 
L 250.439421 101.772375 
L 252.807096 101.772375 
L 252.807096 102.62799 
L 255.174771 102.62799 
L 255.174771 103.740473 
L 257.542447 103.740473 
L 257.542447 104.918252 
L 259.910122 104.918252 
L 259.910122 106.186538 
L 262.277797 106.186538 
L 262.277797 107.327827 
L 264.645473 107.327827 
L 264.645473 108.349143 
L 267.013148 108.349143 
L 267.013148 109.279434 
L 269.380823 109.279434 
L 269.380823 110.110895 
L 271.748498 110.110895 
L 271.748498 110.859674 
L 274.116174 110.859674 
L 274.116174 111.536292 
L 276.483849 111.536292 
L 276.483849 112.149384 
L 278.851524 112.149384 
L 278.851524 112.695334 
L 281.219199 112.695334 
L 281.219199 113.160857 
L 283.586875 113.160857 
L 283.586875 113.562196 
L 285.95455 113.562196 
L 285.95455 113.889626 
L 288.322225 113.889626 
L 288.322225 114.130207 
L 290.6899 114.130207 
L 290.6899 114.348781 
L 293.057576 114.348781 
L 293.057576 114.590646 
L 295.425251 114.590646 
L 295.425251 114.861414 
L 297.792926 114.861414 
L 297.792926 115.112993 
L 300.160601 115.112993 
L 300.160601 115.25591 
L 302.528277 115.25591 
L 302.528277 115.326765 
L 304.895952 115.326765 
L 304.895952 115.363665 
L 307.263627 115.363665 
L 307.263627 115.375936 
L 309.631303 115.375936 
L 309.631303 115.378764 
L 311.998978 115.378764 
L 311.998978 115.37926 
L 314.366653 115.37926 
L 314.366653 115.379487 
L 316.734328 115.379487 
L 316.734328 115.379876 
L 319.102004 115.379876 
L 319.102004 115.380156 
L 321.469679 115.380156 
L 321.469679 115.380566 
L 323.837354 115.380566 
L 323.837354 115.380664 
L 326.205029 115.380664 
L 326.205029 115.380804 
L 328.572705 115.380804 
L 328.572705 115.380761 
L 330.94038 115.380761 
L 330.94038 115.380847 
L 333.308055 115.380847 
L 333.308055 115.380923 
L 335.67573 115.380923 
L 335.67573 115.380977 
L 338.043406 115.380977 
L 338.043406 115.381203 
" clip-path="url(#pb1da8059a2)" style="fill: #7f7f7f; opacity: 0.2"/>
   </g>
   <g id="patch_13">
    <path d="M 195.98289 115.381203 
L 195.98289 115.330963 
L 198.350565 115.330963 
L 198.350565 115.300117 
L 200.71824 115.300117 
L 200.71824 115.2687 
L 203.085916 115.2687 
L 203.085916 115.235674 
L 205.453591 115.235674 
L 205.453591 115.200986 
L 207.821266 115.200986 
L 207.821266 115.153908 
L 210.188941 115.153908 
L 210.188941 115.104596 
L 212.556617 115.104596 
L 212.556617 115.032501 
L 214.924292 115.032501 
L 214.924292 114.923073 
L 217.291967 114.923073 
L 217.291967 114.703797 
L 219.659643 114.703797 
L 219.659643 114.103257 
L 222.027318 114.103257 
L 222.027318 112.456307 
L 224.394993 112.456307 
L 224.394993 108.749608 
L 226.762668 108.749608 
L 226.762668 103.345729 
L 229.130344 103.345729 
L 229.130344 97.322628 
L 231.498019 97.322628 
L 231.498019 94.436812 
L 233.865694 94.436812 
L 233.865694 95.914154 
L 236.233369 95.914154 
L 236.233369 98.730615 
L 238.601045 98.730615 
L 238.601045 100.268494 
L 240.96872 100.268494 
L 240.96872 99.951748 
L 243.336395 99.951748 
L 243.336395 99.307714 
L 245.70407 99.307714 
L 245.70407 99.363933 
L 248.071746 99.363933 
L 248.071746 100.385616 
L 250.439421 100.385616 
L 250.439421 101.772375 
L 252.807096 101.772375 
L 252.807096 102.62799 
L 255.174771 102.62799 
L 255.174771 103.740473 
L 257.542447 103.740473 
L 257.542447 104.918252 
L 259.910122 104.918252 
L 259.910122 106.186538 
L 262.277797 106.186538 
L 262.277797 107.327827 
L 264.645473 107.327827 
L 264.645473 108.349143 
L 267.013148 108.349143 
L 267.013148 109.279434 
L 269.380823 109.279434 
L 269.380823 110.110895 
L 271.748498 110.110895 
L 271.748498 110.859674 
L 274.116174 110.859674 
L 274.116174 111.536292 
L 276.483849 111.536292 
L 276.483849 112.149384 
L 278.851524 112.149384 
L 278.851524 112.695334 
L 281.219199 112.695334 
L 281.219199 113.160857 
L 283.586875 113.160857 
L 283.586875 113.562196 
L 285.95455 113.562196 
L 285.95455 113.889626 
L 288.322225 113.889626 
L 288.322225 114.130207 
L 290.6899 114.130207 
L 290.6899 114.348781 
L 293.057576 114.348781 
L 293.057576 114.590646 
L 295.425251 114.590646 
L 295.425251 114.861414 
L 297.792926 114.861414 
L 297.792926 115.112993 
L 300.160601 115.112993 
L 300.160601 115.25591 
L 302.528277 115.25591 
L 302.528277 115.326765 
L 304.895952 115.326765 
L 304.895952 115.363665 
L 307.263627 115.363665 
L 307.263627 115.375936 
L 309.631303 115.375936 
L 309.631303 115.378764 
L 311.998978 115.378764 
L 311.998978 115.37926 
L 314.366653 115.37926 
L 314.366653 115.379487 
L 316.734328 115.379487 
L 316.734328 115.379876 
L 319.102004 115.379876 
L 319.102004 115.380156 
L 321.469679 115.380156 
L 321.469679 115.380566 
L 323.837354 115.380566 
L 323.837354 115.380664 
L 326.205029 115.380664 
L 326.205029 115.380804 
L 328.572705 115.380804 
L 328.572705 115.380761 
L 330.94038 115.380761 
L 330.94038 115.380847 
L 333.308055 115.380847 
L 333.308055 115.380923 
L 335.67573 115.380923 
L 335.67573 115.380977 
L 338.043406 115.380977 
L 338.043406 115.381203 
" clip-path="url(#pb1da8059a2)" style="fill: none; opacity: 0.2; stroke: #7f7f7f; stroke-linejoin: miter"/>
   </g>
   <g id="matplotlib.axis_3">
    <g id="xtick_6">
     <g id="line2d_23">
      <path d="M 195.98289 115.381203 
L 195.98289 10.659249 
" clip-path="url(#pb1da8059a2)" style="fill: none; stroke: #808080; stroke-opacity: 0.2; stroke-width: 0.8; stroke-linecap: square"/>
     </g>
     <g id="line2d_24">
      <g>
       <use xlink:href="#mc51aeadadf" x="195.98289" y="115.381203" style="fill: #ffffff; stroke: #ffffff; stroke-width: 0.8"/>
      </g>
     </g>
     <g id="text_14">
      <!-- $\mathdefault{0.0}$ -->
      <g style="fill: #ffffff" transform="translate(189.61785 129.299702) scale(0.1 -0.1)">
       <use xlink:href="#CMR17-30" transform="scale(0.996264)"/>
       <use xlink:href="#CMMI12-3a" transform="translate(45.690477 0) scale(0.996264)"/>
       <use xlink:href="#CMR17-30" transform="translate(72.787654 0) scale(0.996264)"/>
      </g>
     </g>
    </g>
    <g id="xtick_7">
     <g id="line2d_25">
      <path d="M 231.498019 115.381203 
L 231.498019 10.659249 
" clip-path="url(#pb1da8059a2)" style="fill: none; stroke: #808080; stroke-opacity: 0.2; stroke-width: 0.8; stroke-linecap: square"/>
     </g>
     <g id="line2d_26">
      <g>
       <use xlink:href="#mc51aeadadf" x="231.498019" y="115.381203" style="fill: #ffffff; stroke: #ffffff; stroke-width: 0.8"/>
      </g>
     </g>
     <g id="text_15">
      <!-- $\mathdefault{0.5}$ -->
      <g style="fill: #ffffff" transform="translate(225.132979 129.299702) scale(0.1 -0.1)">
       <defs>
        <path id="CMR17-35" d="M 730 3692 
C 794 3666 1056 3584 1325 3584 
C 1920 3584 2246 3911 2432 4100 
C 2432 4157 2432 4192 2394 4192 
C 2387 4192 2374 4192 2323 4163 
C 2099 4058 1837 3973 1517 3973 
C 1325 3973 1037 3999 723 4139 
C 653 4171 640 4171 634 4171 
C 602 4171 595 4164 595 4037 
L 595 2203 
C 595 2089 595 2057 659 2057 
C 691 2057 704 2070 736 2114 
C 941 2401 1222 2522 1542 2522 
C 1766 2522 2246 2382 2246 1289 
C 2246 1085 2246 715 2054 421 
C 1894 159 1645 25 1370 25 
C 947 25 518 320 403 814 
C 429 807 480 795 506 795 
C 589 795 749 840 749 1038 
C 749 1210 627 1280 506 1280 
C 358 1280 262 1190 262 1011 
C 262 454 704 -128 1382 -128 
C 2042 -128 2669 440 2669 1264 
C 2669 2030 2170 2624 1549 2624 
C 1222 2624 947 2503 730 2274 
L 730 3692 
z
" transform="scale(0.015625)"/>
       </defs>
       <use xlink:href="#CMR17-30" transform="scale(0.996264)"/>
       <use xlink:href="#CMMI12-3a" transform="translate(45.690477 0) scale(0.996264)"/>
       <use xlink:href="#CMR17-35" transform="translate(72.787654 0) scale(0.996264)"/>
      </g>
     </g>
    </g>
    <g id="xtick_8">
     <g id="line2d_27">
      <path d="M 267.013148 115.381203 
L 267.013148 10.659249 
" clip-path="url(#pb1da8059a2)" style="fill: none; stroke: #808080; stroke-opacity: 0.2; stroke-width: 0.8; stroke-linecap: square"/>
     </g>
     <g id="line2d_28">
      <g>
       <use xlink:href="#mc51aeadadf" x="267.013148" y="115.381203" style="fill: #ffffff; stroke: #ffffff; stroke-width: 0.8"/>
      </g>
     </g>
     <g id="text_16">
      <!-- $\mathdefault{1.0}$ -->
      <g style="fill: #ffffff" transform="translate(260.648108 129.299702) scale(0.1 -0.1)">
       <use xlink:href="#CMR17-31" transform="scale(0.996264)"/>
       <use xlink:href="#CMMI12-3a" transform="translate(45.690477 0) scale(0.996264)"/>
       <use xlink:href="#CMR17-30" transform="translate(72.787654 0) scale(0.996264)"/>
      </g>
     </g>
    </g>
    <g id="xtick_9">
     <g id="line2d_29">
      <path d="M 302.528277 115.381203 
L 302.528277 10.659249 
" clip-path="url(#pb1da8059a2)" style="fill: none; stroke: #808080; stroke-opacity: 0.2; stroke-width: 0.8; stroke-linecap: square"/>
     </g>
     <g id="line2d_30">
      <g>
       <use xlink:href="#mc51aeadadf" x="302.528277" y="115.381203" style="fill: #ffffff; stroke: #ffffff; stroke-width: 0.8"/>
      </g>
     </g>
     <g id="text_17">
      <!-- $\mathdefault{1.5}$ -->
      <g style="fill: #ffffff" transform="translate(296.163237 129.299702) scale(0.1 -0.1)">
       <use xlink:href="#CMR17-31" transform="scale(0.996264)"/>
       <use xlink:href="#CMMI12-3a" transform="translate(45.690477 0) scale(0.996264)"/>
       <use xlink:href="#CMR17-35" transform="translate(72.787654 0) scale(0.996264)"/>
      </g>
     </g>
    </g>
    <g id="xtick_10">
     <g id="line2d_31">
      <path d="M 338.043406 115.381203 
L 338.043406 10.659249 
" clip-path="url(#pb1da8059a2)" style="fill: none; stroke: #808080; stroke-opacity: 0.2; stroke-width: 0.8; stroke-linecap: square"/>
     </g>
     <g id="line2d_32">
      <g>
       <use xlink:href="#mc51aeadadf" x="338.043406" y="115.381203" style="fill: #ffffff; stroke: #ffffff; stroke-width: 0.8"/>
      </g>
     </g>
     <g id="text_18">
      <!-- $\mathdefault{2.0}$ -->
      <g style="fill: #ffffff" transform="translate(331.678366 129.299702) scale(0.1 -0.1)">
       <use xlink:href="#CMR17-32" transform="scale(0.996264)"/>
       <use xlink:href="#CMMI12-3a" transform="translate(45.690477 0) scale(0.996264)"/>
       <use xlink:href="#CMR17-30" transform="translate(72.787654 0) scale(0.996264)"/>
      </g>
     </g>
    </g>
    <g id="text_19">
     <!-- $G-G_\mathrm{RP}$ -->
     <g style="fill: #ffffff" transform="translate(247.522388 142.155378) scale(0.1 -0.1)">
      <defs>
       <path id="CMSY10-0" d="M 4218 1472 
C 4326 1472 4442 1472 4442 1600 
C 4442 1728 4326 1728 4218 1728 
L 755 1728 
C 646 1728 531 1728 531 1600 
C 531 1472 646 1472 755 1472 
L 4218 1472 
z
" transform="scale(0.015625)"/>
       <path id="CMR17-52" d="M 2509 2146 
C 3117 2268 3629 2676 3629 3186 
C 3629 3785 2950 4326 2054 4326 
L 333 4326 
L 333 4160 
C 774 4160 845 4160 845 3873 
L 845 415 
C 845 128 774 128 333 128 
L 333 -26 
C 518 -26 851 -26 1050 -26 
C 1248 -26 1581 -26 1766 -26 
L 1766 128 
C 1325 128 1254 128 1254 417 
L 1254 2112 
L 2003 2112 
C 2368 2112 2573 1964 2662 1881 
C 2918 1632 2918 1459 2918 1024 
C 2918 595 2918 377 3110 160 
C 3354 -102 3680 -128 3821 -128 
C 4294 -128 4365 396 4365 503 
C 4365 540 4365 585 4307 585 
C 4256 585 4250 547 4250 522 
C 4218 112 4032 -26 3834 -26 
C 3482 -26 3443 375 3405 764 
C 3386 898 3373 993 3360 1133 
C 3322 1452 3270 1917 2509 2146 
z
M 1984 2214 
L 1254 2214 
L 1254 3913 
C 1254 4129 1267 4160 1523 4160 
L 1990 4160 
C 2522 4160 3142 3977 3142 3190 
C 3142 2372 2464 2214 1984 2214 
z
" transform="scale(0.015625)"/>
       <path id="CMR17-50" d="M 1267 2042 
L 2291 2042 
C 3117 2042 3718 2578 3718 3184 
C 3718 3791 3130 4352 2291 4352 
L 333 4352 
L 333 4186 
C 774 4186 845 4186 845 3899 
L 845 446 
C 845 160 774 160 333 160 
L 333 0 
C 518 0 858 0 1056 0 
C 1254 0 1594 0 1779 0 
L 1779 160 
C 1338 160 1267 160 1267 446 
L 1267 2042 
z
M 1254 2176 
L 1254 3938 
C 1254 4155 1267 4186 1523 4186 
L 2170 4186 
C 2995 4186 3232 3714 3232 3184 
C 3232 2604 2950 2176 2170 2176 
L 1254 2176 
z
" transform="scale(0.015625)"/>
      </defs>
      <use xlink:href="#CMMI12-47" transform="scale(0.996264)"/>
      <use xlink:href="#CMSY10-0" transform="translate(99.086069 0) scale(0.996264)"/>
      <use xlink:href="#CMMI12-47" transform="translate(198.712743 0) scale(0.996264)"/>
      <use xlink:href="#CMR17-52" transform="translate(275.659605 -14.943915) scale(0.697382)"/>
      <use xlink:href="#CMR17-50" transform="translate(323.11317 -14.943915) scale(0.697382)"/>
     </g>
    </g>
   </g>
   <g id="matplotlib.axis_4">
    <g id="ytick_7">
     <g id="line2d_33">
      <path d="M 195.98289 115.381203 
L 338.043406 115.381203 
" clip-path="url(#pb1da8059a2)" style="fill: none; stroke: #808080; stroke-opacity: 0.2; stroke-width: 0.8; stroke-linecap: square"/>
     </g>
    </g>
    <g id="ytick_8">
     <g id="line2d_34">
      <path d="M 195.98289 94.436812 
L 338.043406 94.436812 
" clip-path="url(#pb1da8059a2)" style="fill: none; stroke: #808080; stroke-opacity: 0.2; stroke-width: 0.8; stroke-linecap: square"/>
     </g>
    </g>
    <g id="ytick_9">
     <g id="line2d_35">
      <path d="M 195.98289 73.492422 
L 338.043406 73.492422 
" clip-path="url(#pb1da8059a2)" style="fill: none; stroke: #808080; stroke-opacity: 0.2; stroke-width: 0.8; stroke-linecap: square"/>
     </g>
    </g>
    <g id="ytick_10">
     <g id="line2d_36">
      <path d="M 195.98289 52.548031 
L 338.043406 52.548031 
" clip-path="url(#pb1da8059a2)" style="fill: none; stroke: #808080; stroke-opacity: 0.2; stroke-width: 0.8; stroke-linecap: square"/>
     </g>
    </g>
    <g id="ytick_11">
     <g id="line2d_37">
      <path d="M 195.98289 31.60364 
L 338.043406 31.60364 
" clip-path="url(#pb1da8059a2)" style="fill: none; stroke: #808080; stroke-opacity: 0.2; stroke-width: 0.8; stroke-linecap: square"/>
     </g>
    </g>
    <g id="ytick_12">
     <g id="line2d_38">
      <path d="M 195.98289 10.659249 
L 338.043406 10.659249 
" clip-path="url(#pb1da8059a2)" style="fill: none; stroke: #808080; stroke-opacity: 0.2; stroke-width: 0.8; stroke-linecap: square"/>
     </g>
    </g>
   </g>
   <g id="patch_14">
    <path d="M 195.98289 115.381203 
L 195.98289 10.659249 
" style="fill: none; stroke: #ffffff; stroke-width: 0.8; stroke-linejoin: miter; stroke-linecap: square"/>
   </g>
   <g id="patch_15">
    <path d="M 338.043406 115.381203 
L 338.043406 10.659249 
" style="fill: none; stroke: #ffffff; stroke-width: 0.8; stroke-linejoin: miter; stroke-linecap: square"/>
   </g>
   <g id="patch_16">
    <path d="M 195.98289 115.381203 
L 338.043406 115.381203 
" style="fill: none; stroke: #ffffff; stroke-width: 0.8; stroke-linejoin: miter; stroke-linecap: square"/>
   </g>
   <g id="patch_17">
    <path d="M 195.98289 10.659249 
L 338.043406 10.659249 
" style="fill: none; stroke: #ffffff; stroke-width: 0.8; stroke-linejoin: miter; stroke-linecap: square"/>
   </g>
  </g>
  <g id="axes_3">
   <g id="patch_18">
    <path d="M 356.773965 115.381203 
L 498.834481 115.381203 
L 498.834481 10.659249 
L 356.773965 10.659249 
z
"/>
   </g>
   <g id="patch_19">
    <path d="M 356.773965 115.381203 
L 356.773965 30.018079 
L 359.14164 30.018079 
L 359.14164 36.240235 
L 361.509315 36.240235 
L 361.509315 37.070699 
L 363.87699 37.070699 
L 363.87699 36.878064 
L 366.244666 36.878064 
L 366.244666 37.205919 
L 368.612341 37.205919 
L 368.612341 37.160121 
L 370.980016 37.160121 
L 370.980016 37.749668 
L 373.347692 37.749668 
L 373.347692 38.962301 
L 375.715367 38.962301 
L 375.715367 39.608451 
L 378.083042 39.608451 
L 378.083042 39.807056 
L 380.450717 39.807056 
L 380.450717 39.891821 
L 382.818393 39.891821 
L 382.818393 39.560712 
L 385.186068 39.560712 
L 385.186068 38.98442 
L 387.553743 38.98442 
L 387.553743 38.69263 
L 389.921418 38.69263 
L 389.921418 38.82933 
L 392.289094 38.82933 
L 392.289094 39.446467 
L 394.656769 39.446467 
L 394.656769 40.18954 
L 397.024444 40.18954 
L 397.024444 39.70673 
L 399.392119 39.70673 
L 399.392119 39.225716 
L 401.759795 39.225716 
L 401.759795 39.345231 
L 404.12747 39.345231 
L 404.12747 38.536281 
L 406.495145 38.536281 
L 406.495145 36.823257 
L 408.86282 36.823257 
L 408.86282 36.126197 
L 411.230496 36.126197 
L 411.230496 35.165273 
L 413.598171 35.165273 
L 413.598171 34.059054 
L 415.965846 34.059054 
L 415.965846 34.155707 
L 418.333522 34.155707 
L 418.333522 33.846687 
L 420.701197 33.846687 
L 420.701197 33.84053 
L 423.068872 33.84053 
L 423.068872 33.227184 
L 425.436547 33.227184 
L 425.436547 32.429933 
L 427.804223 32.429933 
L 427.804223 32.499589 
L 430.171898 32.499589 
L 430.171898 32.183381 
L 432.539573 32.183381 
L 432.539573 32.725265 
L 434.907248 32.725265 
L 434.907248 32.085944 
L 437.274924 32.085944 
L 437.274924 32.30461 
L 439.642599 32.30461 
L 439.642599 32.442706 
L 442.010274 32.442706 
L 442.010274 33.261373 
L 444.377949 33.261373 
L 444.377949 33.434705 
L 446.745625 33.434705 
L 446.745625 35.147524 
L 449.1133 35.147524 
L 449.1133 36.031005 
L 451.480975 36.031005 
L 451.480975 36.206407 
L 453.84865 36.206407 
L 453.84865 36.457723 
L 456.216326 36.457723 
L 456.216326 37.613148 
L 458.584001 37.613148 
L 458.584001 39.783856 
L 460.951676 39.783856 
L 460.951676 38.801368 
L 463.319352 38.801368 
L 463.319352 41.274778 
L 465.687027 41.274778 
L 465.687027 42.629932 
L 468.054702 42.629932 
L 468.054702 41.588757 
L 470.422377 41.588757 
L 470.422377 43.685941 
L 472.790053 43.685941 
L 472.790053 44.214523 
L 475.157728 44.214523 
L 475.157728 42.091281 
L 477.525403 42.091281 
L 477.525403 44.273704 
L 479.893078 44.273704 
L 479.893078 42.397233 
L 482.260754 42.397233 
L 482.260754 44.045852 
L 484.628429 44.045852 
L 484.628429 48.900412 
L 486.996104 48.900412 
L 486.996104 47.121144 
L 489.363779 47.121144 
L 489.363779 45.566567 
L 491.731455 45.566567 
L 491.731455 52.060952 
L 494.09913 52.060952 
L 494.09913 52.261121 
L 496.466805 52.261121 
L 496.466805 66.898817 
L 498.834481 66.898817 
L 498.834481 115.381203 
" clip-path="url(#p0f50893e88)" style="fill: none; stroke: #8dd3c7; stroke-linejoin: miter"/>
   </g>
   <g id="patch_20">
    <path d="M 356.773965 115.381203 
L 356.773965 96.079786 
L 359.14164 96.079786 
L 359.14164 94.436812 
L 361.509315 94.436812 
L 361.509315 98.981034 
L 363.87699 98.981034 
L 363.87699 103.094484 
L 366.244666 103.094484 
L 366.244666 105.891474 
L 368.612341 105.891474 
L 368.612341 107.56539 
L 370.980016 107.56539 
L 370.980016 108.697384 
L 373.347692 108.697384 
L 373.347692 109.428148 
L 375.715367 109.428148 
L 375.715367 109.981961 
L 378.083042 109.981961 
L 378.083042 110.462329 
L 380.450717 110.462329 
L 380.450717 110.994758 
L 382.818393 110.994758 
L 382.818393 111.434804 
L 385.186068 111.434804 
L 385.186068 111.809496 
L 387.553743 111.809496 
L 387.553743 112.132362 
L 389.921418 112.132362 
L 389.921418 112.612903 
L 392.289094 112.612903 
L 392.289094 112.991389 
L 394.656769 112.991389 
L 394.656769 113.282304 
L 397.024444 113.282304 
L 397.024444 113.50057 
L 399.392119 113.50057 
L 399.392119 113.714179 
L 401.759795 113.714179 
L 401.759795 113.88806 
L 404.12747 113.88806 
L 404.12747 114.015332 
L 406.495145 114.015332 
L 406.495145 114.132522 
L 408.86282 114.132522 
L 408.86282 114.2332 
L 411.230496 114.2332 
L 411.230496 114.325444 
L 413.598171 114.325444 
L 413.598171 114.416018 
L 415.965846 114.416018 
L 415.965846 114.509462 
L 418.333522 114.509462 
L 418.333522 114.613473 
L 420.701197 114.613473 
L 420.701197 114.713596 
L 423.068872 114.713596 
L 423.068872 114.801525 
L 425.436547 114.801525 
L 425.436547 114.87729 
L 427.804223 114.87729 
L 427.804223 114.942049 
L 430.171898 114.942049 
L 430.171898 115.000521 
L 432.539573 115.000521 
L 432.539573 115.055149 
L 434.907248 115.055149 
L 434.907248 115.094754 
L 437.274924 115.094754 
L 437.274924 115.137212 
L 439.642599 115.137212 
L 439.642599 115.17383 
L 442.010274 115.17383 
L 442.010274 115.205383 
L 444.377949 115.205383 
L 444.377949 115.232695 
L 446.745625 115.232695 
L 446.745625 115.255736 
L 449.1133 115.255736 
L 449.1133 115.28224 
L 451.480975 115.28224 
L 451.480975 115.302396 
L 453.84865 115.302396 
L 453.84865 115.319268 
L 456.216326 115.319268 
L 456.216326 115.331198 
L 458.584001 115.331198 
L 458.584001 115.34106 
L 460.951676 115.34106 
L 460.951676 115.35025 
L 463.319352 115.35025 
L 463.319352 115.357047 
L 465.687027 115.357047 
L 465.687027 115.36362 
L 468.054702 115.36362 
L 468.054702 115.36762 
L 470.422377 115.36762 
L 470.422377 115.371946 
L 472.790053 115.371946 
L 472.790053 115.374714 
L 475.157728 115.374714 
L 475.157728 115.375886 
L 477.525403 115.375886 
L 477.525403 115.377505 
L 479.893078 115.377505 
L 479.893078 115.378149 
L 482.260754 115.378149 
L 482.260754 115.379276 
L 484.628429 115.379276 
L 484.628429 115.379937 
L 486.996104 115.379937 
L 486.996104 115.380301 
L 489.363779 115.380301 
L 489.363779 115.380587 
L 491.731455 115.380587 
L 491.731455 115.380766 
L 494.09913 115.380766 
L 494.09913 115.380957 
L 496.466805 115.380957 
L 496.466805 115.381063 
L 498.834481 115.381063 
L 498.834481 115.381203 
" clip-path="url(#p0f50893e88)" style="fill: #7f7f7f; opacity: 0.2"/>
   </g>
   <g id="patch_21">
    <path d="M 356.773965 115.381203 
L 356.773965 96.079786 
L 359.14164 96.079786 
L 359.14164 94.436812 
L 361.509315 94.436812 
L 361.509315 98.981034 
L 363.87699 98.981034 
L 363.87699 103.094484 
L 366.244666 103.094484 
L 366.244666 105.891474 
L 368.612341 105.891474 
L 368.612341 107.56539 
L 370.980016 107.56539 
L 370.980016 108.697384 
L 373.347692 108.697384 
L 373.347692 109.428148 
L 375.715367 109.428148 
L 375.715367 109.981961 
L 378.083042 109.981961 
L 378.083042 110.462329 
L 380.450717 110.462329 
L 380.450717 110.994758 
L 382.818393 110.994758 
L 382.818393 111.434804 
L 385.186068 111.434804 
L 385.186068 111.809496 
L 387.553743 111.809496 
L 387.553743 112.132362 
L 389.921418 112.132362 
L 389.921418 112.612903 
L 392.289094 112.612903 
L 392.289094 112.991389 
L 394.656769 112.991389 
L 394.656769 113.282304 
L 397.024444 113.282304 
L 397.024444 113.50057 
L 399.392119 113.50057 
L 399.392119 113.714179 
L 401.759795 113.714179 
L 401.759795 113.88806 
L 404.12747 113.88806 
L 404.12747 114.015332 
L 406.495145 114.015332 
L 406.495145 114.132522 
L 408.86282 114.132522 
L 408.86282 114.2332 
L 411.230496 114.2332 
L 411.230496 114.325444 
L 413.598171 114.325444 
L 413.598171 114.416018 
L 415.965846 114.416018 
L 415.965846 114.509462 
L 418.333522 114.509462 
L 418.333522 114.613473 
L 420.701197 114.613473 
L 420.701197 114.713596 
L 423.068872 114.713596 
L 423.068872 114.801525 
L 425.436547 114.801525 
L 425.436547 114.87729 
L 427.804223 114.87729 
L 427.804223 114.942049 
L 430.171898 114.942049 
L 430.171898 115.000521 
L 432.539573 115.000521 
L 432.539573 115.055149 
L 434.907248 115.055149 
L 434.907248 115.094754 
L 437.274924 115.094754 
L 437.274924 115.137212 
L 439.642599 115.137212 
L 439.642599 115.17383 
L 442.010274 115.17383 
L 442.010274 115.205383 
L 444.377949 115.205383 
L 444.377949 115.232695 
L 446.745625 115.232695 
L 446.745625 115.255736 
L 449.1133 115.255736 
L 449.1133 115.28224 
L 451.480975 115.28224 
L 451.480975 115.302396 
L 453.84865 115.302396 
L 453.84865 115.319268 
L 456.216326 115.319268 
L 456.216326 115.331198 
L 458.584001 115.331198 
L 458.584001 115.34106 
L 460.951676 115.34106 
L 460.951676 115.35025 
L 463.319352 115.35025 
L 463.319352 115.357047 
L 465.687027 115.357047 
L 465.687027 115.36362 
L 468.054702 115.36362 
L 468.054702 115.36762 
L 470.422377 115.36762 
L 470.422377 115.371946 
L 472.790053 115.371946 
L 472.790053 115.374714 
L 475.157728 115.374714 
L 475.157728 115.375886 
L 477.525403 115.375886 
L 477.525403 115.377505 
L 479.893078 115.377505 
L 479.893078 115.378149 
L 482.260754 115.378149 
L 482.260754 115.379276 
L 484.628429 115.379276 
L 484.628429 115.379937 
L 486.996104 115.379937 
L 486.996104 115.380301 
L 489.363779 115.380301 
L 489.363779 115.380587 
L 491.731455 115.380587 
L 491.731455 115.380766 
L 494.09913 115.380766 
L 494.09913 115.380957 
L 496.466805 115.380957 
L 496.466805 115.381063 
L 498.834481 115.381063 
L 498.834481 115.381203 
" clip-path="url(#p0f50893e88)" style="fill: none; opacity: 0.2; stroke: #7f7f7f; stroke-linejoin: miter"/>
   </g>
   <g id="matplotlib.axis_5">
    <g id="xtick_11">
     <g id="line2d_39">
      <path d="M 356.773965 115.381203 
L 356.773965 10.659249 
" clip-path="url(#p0f50893e88)" style="fill: none; stroke: #808080; stroke-opacity: 0.2; stroke-width: 0.8; stroke-linecap: square"/>
     </g>
     <g id="line2d_40">
      <g>
       <use xlink:href="#mc51aeadadf" x="356.773965" y="115.381203" style="fill: #ffffff; stroke: #ffffff; stroke-width: 0.8"/>
      </g>
     </g>
     <g id="text_20">
      <!-- $\mathdefault{0.0}$ -->
      <g style="fill: #ffffff" transform="translate(350.408925 129.299702) scale(0.1 -0.1)">
       <use xlink:href="#CMR17-30" transform="scale(0.996264)"/>
       <use xlink:href="#CMMI12-3a" transform="translate(45.690477 0) scale(0.996264)"/>
       <use xlink:href="#CMR17-30" transform="translate(72.787654 0) scale(0.996264)"/>
      </g>
     </g>
    </g>
    <g id="xtick_12">
     <g id="line2d_41">
      <path d="M 392.289094 115.381203 
L 392.289094 10.659249 
" clip-path="url(#p0f50893e88)" style="fill: none; stroke: #808080; stroke-opacity: 0.2; stroke-width: 0.8; stroke-linecap: square"/>
     </g>
     <g id="line2d_42">
      <g>
       <use xlink:href="#mc51aeadadf" x="392.289094" y="115.381203" style="fill: #ffffff; stroke: #ffffff; stroke-width: 0.8"/>
      </g>
     </g>
     <g id="text_21">
      <!-- $\mathdefault{0.5}$ -->
      <g style="fill: #ffffff" transform="translate(385.924054 129.299702) scale(0.1 -0.1)">
       <use xlink:href="#CMR17-30" transform="scale(0.996264)"/>
       <use xlink:href="#CMMI12-3a" transform="translate(45.690477 0) scale(0.996264)"/>
       <use xlink:href="#CMR17-35" transform="translate(72.787654 0) scale(0.996264)"/>
      </g>
     </g>
    </g>
    <g id="xtick_13">
     <g id="line2d_43">
      <path d="M 427.804223 115.381203 
L 427.804223 10.659249 
" clip-path="url(#p0f50893e88)" style="fill: none; stroke: #808080; stroke-opacity: 0.2; stroke-width: 0.8; stroke-linecap: square"/>
     </g>
     <g id="line2d_44">
      <g>
       <use xlink:href="#mc51aeadadf" x="427.804223" y="115.381203" style="fill: #ffffff; stroke: #ffffff; stroke-width: 0.8"/>
      </g>
     </g>
     <g id="text_22">
      <!-- $\mathdefault{1.0}$ -->
      <g style="fill: #ffffff" transform="translate(421.439183 129.299702) scale(0.1 -0.1)">
       <use xlink:href="#CMR17-31" transform="scale(0.996264)"/>
       <use xlink:href="#CMMI12-3a" transform="translate(45.690477 0) scale(0.996264)"/>
       <use xlink:href="#CMR17-30" transform="translate(72.787654 0) scale(0.996264)"/>
      </g>
     </g>
    </g>
    <g id="xtick_14">
     <g id="line2d_45">
      <path d="M 463.319352 115.381203 
L 463.319352 10.659249 
" clip-path="url(#p0f50893e88)" style="fill: none; stroke: #808080; stroke-opacity: 0.2; stroke-width: 0.8; stroke-linecap: square"/>
     </g>
     <g id="line2d_46">
      <g>
       <use xlink:href="#mc51aeadadf" x="463.319352" y="115.381203" style="fill: #ffffff; stroke: #ffffff; stroke-width: 0.8"/>
      </g>
     </g>
     <g id="text_23">
      <!-- $\mathdefault{1.5}$ -->
      <g style="fill: #ffffff" transform="translate(456.954312 129.299702) scale(0.1 -0.1)">
       <use xlink:href="#CMR17-31" transform="scale(0.996264)"/>
       <use xlink:href="#CMMI12-3a" transform="translate(45.690477 0) scale(0.996264)"/>
       <use xlink:href="#CMR17-35" transform="translate(72.787654 0) scale(0.996264)"/>
      </g>
     </g>
    </g>
    <g id="xtick_15">
     <g id="line2d_47">
      <path d="M 498.834481 115.381203 
L 498.834481 10.659249 
" clip-path="url(#p0f50893e88)" style="fill: none; stroke: #808080; stroke-opacity: 0.2; stroke-width: 0.8; stroke-linecap: square"/>
     </g>
     <g id="line2d_48">
      <g>
       <use xlink:href="#mc51aeadadf" x="498.834481" y="115.381203" style="fill: #ffffff; stroke: #ffffff; stroke-width: 0.8"/>
      </g>
     </g>
     <g id="text_24">
      <!-- $\mathdefault{2.0}$ -->
      <g style="fill: #ffffff" transform="translate(492.469441 129.299702) scale(0.1 -0.1)">
       <use xlink:href="#CMR17-32" transform="scale(0.996264)"/>
       <use xlink:href="#CMMI12-3a" transform="translate(45.690477 0) scale(0.996264)"/>
       <use xlink:href="#CMR17-30" transform="translate(72.787654 0) scale(0.996264)"/>
      </g>
     </g>
    </g>
    <g id="text_25">
     <!-- $E$ (Zhang et al. 2023) -->
     <g style="fill: #ffffff" transform="translate(379.838183 142.70886) scale(0.1 -0.1)">
      <defs>
       <path id="CMMI12-45" d="M 4448 1489 
C 4454 1508 4474 1554 4474 1579 
C 4474 1611 4448 1643 4410 1643 
C 4384 1643 4371 1637 4352 1617 
C 4339 1611 4339 1598 4282 1469 
C 3904 570 3629 185 2605 185 
L 1670 185 
C 1581 185 1568 185 1530 192 
C 1459 198 1453 211 1453 262 
C 1453 307 1466 345 1478 403 
L 1920 2176 
L 2554 2176 
C 3053 2176 3091 2066 3091 1874 
C 3091 1810 3091 1752 3046 1560 
C 3034 1534 3027 1508 3027 1489 
C 3027 1444 3059 1425 3098 1425 
C 3155 1425 3162 1469 3187 1559 
L 3552 3042 
C 3552 3073 3526 3105 3488 3105 
C 3430 3105 3424 3080 3398 2990 
C 3270 2501 3142 2361 2573 2361 
L 1965 2361 
L 2362 3930 
C 2419 4154 2432 4154 2694 4154 
L 3610 4154 
C 4397 4154 4557 3943 4557 3458 
C 4557 3451 4557 3273 4531 3062 
C 4525 3036 4518 2998 4518 2985 
C 4518 2934 4550 2915 4589 2915 
C 4634 2915 4659 2941 4672 3055 
L 4806 4174 
C 4806 4195 4819 4263 4819 4277 
C 4819 4352 4762 4352 4646 4352 
L 1523 4352 
C 1402 4352 1338 4352 1338 4229 
C 1338 4154 1382 4154 1491 4154 
C 1888 4154 1888 4114 1888 4052 
C 1888 4020 1882 3994 1862 3924 
L 998 473 
C 941 249 928 185 480 185 
C 358 185 294 185 294 70 
C 294 0 333 0 461 0 
L 3674 0 
C 3814 0 3821 6 3866 110 
L 4448 1489 
z
" transform="scale(0.015625)"/>
       <path id="CMR17-28" d="M 1958 -1561 
C 1958 -1555 1958 -1542 1939 -1523 
C 1645 -1224 858 -407 858 1581 
C 858 3569 1632 4379 1946 4697 
C 1946 4704 1958 4717 1958 4736 
C 1958 4755 1939 4768 1914 4768 
C 1843 4768 1299 4296 986 3594 
C 666 2887 576 2199 576 1588 
C 576 1128 621 351 1005 -471 
C 1312 -1135 1837 -1600 1914 -1600 
C 1946 -1600 1958 -1587 1958 -1561 
z
" transform="scale(0.015625)"/>
       <path id="CMR17-5a" d="M 3302 4230 
C 3302 4352 3296 4352 3162 4352 
L 442 4352 
L 378 2948 
L 493 2948 
C 531 3675 723 4192 1760 4192 
L 2816 4192 
L 339 204 
C 294 134 294 127 294 83 
C 294 0 307 0 435 0 
L 3245 0 
L 3334 1666 
L 3219 1666 
C 3162 829 3117 178 1894 178 
L 781 178 
L 3302 4230 
z
" transform="scale(0.015625)"/>
       <path id="CMR17-68" d="M 2656 1933 
C 2656 2259 2592 2790 1837 2790 
C 1312 2790 1056 2368 979 2157 
L 973 2157 
L 973 4396 
L 211 4326 
L 211 4160 
C 589 4160 646 4122 646 3817 
L 646 426 
C 646 184 621 153 211 153 
L 211 -13 
C 365 0 646 0 813 0 
C 979 0 1267 0 1421 -13 
L 1421 153 
C 1011 153 986 178 986 428 
L 986 1658 
C 986 2247 1344 2688 1792 2688 
C 2266 2688 2317 2266 2317 1958 
L 2317 428 
C 2317 184 2291 153 1882 153 
L 1882 -13 
C 2035 0 2317 0 2483 0 
C 2650 0 2938 0 3091 -13 
L 3091 153 
C 2682 153 2656 178 2656 428 
L 2656 1933 
z
" transform="scale(0.015625)"/>
       <path id="CMR17-61" d="M 2304 1653 
C 2304 2072 2304 2294 2035 2543 
C 1798 2752 1523 2816 1306 2816 
C 800 2816 435 2407 435 1971 
C 435 1728 627 1728 666 1728 
C 749 1728 896 1778 896 1954 
C 896 2112 774 2181 666 2181 
C 640 2181 608 2174 589 2168 
C 723 2592 1069 2714 1293 2714 
C 1613 2714 1965 2429 1965 1885 
L 1965 1600 
C 1587 1600 1133 1549 774 1357 
C 371 1133 256 813 256 570 
C 256 77 832 -64 1171 -64 
C 1523 -64 1850 139 1990 511 
C 2003 233 2182 -18 2464 -18 
C 2598 -18 2938 70 2938 567 
L 2938 920 
L 2822 920 
L 2822 562 
C 2822 178 2650 128 2566 128 
C 2304 128 2304 458 2304 738 
L 2304 1653 
z
M 1965 870 
C 1965 317 1568 38 1216 38 
C 896 38 646 275 646 570 
C 646 761 730 1100 1101 1305 
C 1408 1478 1760 1504 1965 1504 
L 1965 870 
z
" transform="scale(0.015625)"/>
       <path id="CMR17-67" d="M 710 1164 
C 832 1068 1043 960 1299 960 
C 1805 960 2240 1357 2240 1888 
C 2240 2054 2189 2310 1997 2509 
C 2176 2692 2438 2752 2586 2752 
C 2611 2752 2650 2752 2682 2734 
C 2656 2728 2598 2703 2598 2605 
C 2598 2527 2656 2471 2739 2471 
C 2835 2471 2886 2533 2886 2614 
C 2886 2731 2790 2854 2586 2854 
C 2330 2854 2106 2738 1926 2580 
C 1734 2753 1504 2816 1299 2816 
C 794 2816 358 2419 358 1888 
C 358 1522 570 1292 634 1228 
C 442 1004 442 743 442 711 
C 442 545 506 302 723 168 
C 390 85 128 -169 128 -486 
C 128 -943 736 -1280 1466 -1280 
C 2170 -1280 2803 -956 2803 -479 
C 2803 384 1856 384 1363 384 
C 1216 384 954 384 922 391 
C 723 423 589 602 589 826 
C 589 883 589 1024 710 1164 
z
M 1299 1068 
C 736 1068 736 1760 736 1889 
C 736 2016 736 2708 1299 2708 
C 1862 2708 1862 2016 1862 1889 
C 1862 1760 1862 1068 1299 1068 
z
M 1466 -1171 
C 826 -1171 384 -835 384 -486 
C 384 -289 493 -105 634 -4 
C 794 104 858 104 1293 104 
C 1818 104 2547 104 2547 -486 
C 2547 -835 2106 -1171 1466 -1171 
z
" transform="scale(0.015625)"/>
       <path id="CMR17-2e" d="M 1062 261 
C 1062 420 934 522 800 522 
C 672 522 538 420 538 261 
C 538 102 666 0 800 0 
C 928 0 1062 102 1062 261 
z
" transform="scale(0.015625)"/>
       <path id="CMR17-33" d="M 1414 2157 
C 1984 2157 2234 1662 2234 1090 
C 2234 320 1824 25 1453 25 
C 1114 25 563 194 390 693 
C 422 680 454 680 486 680 
C 640 680 755 782 755 948 
C 755 1133 614 1216 486 1216 
C 378 1216 211 1165 211 926 
C 211 335 787 -128 1466 -128 
C 2176 -128 2720 430 2720 1085 
C 2720 1707 2208 2157 1600 2227 
C 2086 2328 2554 2756 2554 3329 
C 2554 3820 2048 4179 1472 4179 
C 890 4179 378 3829 378 3329 
C 378 3110 544 3072 627 3072 
C 762 3072 877 3155 877 3321 
C 877 3486 762 3569 627 3569 
C 602 3569 570 3569 544 3557 
C 730 3959 1235 4032 1459 4032 
C 1683 4032 2106 3925 2106 3320 
C 2106 3143 2080 2828 1862 2550 
C 1670 2304 1453 2304 1242 2284 
C 1210 2284 1062 2269 1037 2269 
C 992 2263 966 2257 966 2208 
C 966 2163 973 2157 1101 2157 
L 1414 2157 
z
" transform="scale(0.015625)"/>
       <path id="CMR17-29" d="M 1683 1581 
C 1683 2040 1638 2817 1254 3639 
C 947 4303 422 4768 346 4768 
C 326 4768 301 4761 301 4729 
C 301 4717 307 4710 314 4697 
C 621 4378 1402 3568 1402 1584 
C 1402 -407 627 -1217 314 -1537 
C 307 -1549 301 -1556 301 -1568 
C 301 -1600 326 -1600 346 -1600 
C 416 -1600 960 -1128 1274 -426 
C 1594 281 1683 969 1683 1581 
z
" transform="scale(0.015625)"/>
      </defs>
      <use xlink:href="#CMMI12-45" transform="scale(0.996264)"/>
      <use xlink:href="#CMR17-28" transform="translate(108.127603 0) scale(0.996264)"/>
      <use xlink:href="#CMR17-5a" transform="translate(143.40837 0) scale(0.996264)"/>
      <use xlink:href="#CMR17-68" transform="translate(199.508542 0) scale(0.996264)"/>
      <use xlink:href="#CMR17-61" transform="translate(250.403911 0) scale(0.996264)"/>
      <use xlink:href="#CMR17-6e" transform="translate(296.094388 0) scale(0.996264)"/>
      <use xlink:href="#CMR17-67" transform="translate(346.989758 0) scale(0.996264)"/>
      <use xlink:href="#CMR17-65" transform="translate(422.756202 0) scale(0.996264)"/>
      <use xlink:href="#CMR17-74" transform="translate(463.241862 0) scale(0.996264)"/>
      <use xlink:href="#CMR17-61" transform="translate(528.598596 0) scale(0.996264)"/>
      <use xlink:href="#CMR17-6c" transform="translate(574.289073 0) scale(0.996264)"/>
      <use xlink:href="#CMR17-2e" transform="translate(599.160132 0) scale(0.996264)"/>
      <use xlink:href="#CMR17-32" transform="translate(664.516851 0) scale(0.996264)"/>
      <use xlink:href="#CMR17-30" transform="translate(710.207328 0) scale(0.996264)"/>
      <use xlink:href="#CMR17-32" transform="translate(755.897805 0) scale(0.996264)"/>
      <use xlink:href="#CMR17-33" transform="translate(801.588282 0) scale(0.996264)"/>
      <use xlink:href="#CMR17-29" transform="translate(847.278759 0) scale(0.996264)"/>
     </g>
    </g>
   </g>
   <g id="matplotlib.axis_6">
    <g id="ytick_13">
     <g id="line2d_49">
      <path d="M 356.773965 115.381203 
L 498.834481 115.381203 
" clip-path="url(#p0f50893e88)" style="fill: none; stroke: #808080; stroke-opacity: 0.2; stroke-width: 0.8; stroke-linecap: square"/>
     </g>
    </g>
    <g id="ytick_14">
     <g id="line2d_50">
      <path d="M 356.773965 94.436812 
L 498.834481 94.436812 
" clip-path="url(#p0f50893e88)" style="fill: none; stroke: #808080; stroke-opacity: 0.2; stroke-width: 0.8; stroke-linecap: square"/>
     </g>
    </g>
    <g id="ytick_15">
     <g id="line2d_51">
      <path d="M 356.773965 73.492422 
L 498.834481 73.492422 
" clip-path="url(#p0f50893e88)" style="fill: none; stroke: #808080; stroke-opacity: 0.2; stroke-width: 0.8; stroke-linecap: square"/>
     </g>
    </g>
    <g id="ytick_16">
     <g id="line2d_52">
      <path d="M 356.773965 52.548031 
L 498.834481 52.548031 
" clip-path="url(#p0f50893e88)" style="fill: none; stroke: #808080; stroke-opacity: 0.2; stroke-width: 0.8; stroke-linecap: square"/>
     </g>
    </g>
    <g id="ytick_17">
     <g id="line2d_53">
      <path d="M 356.773965 31.60364 
L 498.834481 31.60364 
" clip-path="url(#p0f50893e88)" style="fill: none; stroke: #808080; stroke-opacity: 0.2; stroke-width: 0.8; stroke-linecap: square"/>
     </g>
    </g>
    <g id="ytick_18">
     <g id="line2d_54">
      <path d="M 356.773965 10.659249 
L 498.834481 10.659249 
" clip-path="url(#p0f50893e88)" style="fill: none; stroke: #808080; stroke-opacity: 0.2; stroke-width: 0.8; stroke-linecap: square"/>
     </g>
    </g>
   </g>
   <g id="patch_22">
    <path d="M 356.773965 115.381203 
L 356.773965 10.659249 
" style="fill: none; stroke: #ffffff; stroke-width: 0.8; stroke-linejoin: miter; stroke-linecap: square"/>
   </g>
   <g id="patch_23">
    <path d="M 498.834481 115.381203 
L 498.834481 10.659249 
" style="fill: none; stroke: #ffffff; stroke-width: 0.8; stroke-linejoin: miter; stroke-linecap: square"/>
   </g>
   <g id="patch_24">
    <path d="M 356.773965 115.381203 
L 498.834481 115.381203 
" style="fill: none; stroke: #ffffff; stroke-width: 0.8; stroke-linejoin: miter; stroke-linecap: square"/>
   </g>
   <g id="patch_25">
    <path d="M 356.773965 10.659249 
L 498.834481 10.659249 
" style="fill: none; stroke: #ffffff; stroke-width: 0.8; stroke-linejoin: miter; stroke-linecap: square"/>
   </g>
  </g>
 </g>
 <defs>
  <clipPath id="p11cbf3468c">
   <rect x="41.556855" y="10.659249" width="142.060516" height="104.721954"/>
  </clipPath>
  <clipPath id="pb1da8059a2">
   <rect x="195.98289" y="10.659249" width="142.060516" height="104.721954"/>
  </clipPath>
  <clipPath id="p0f50893e88">
   <rect x="356.773965" y="10.659249" width="142.060516" height="104.721954"/>
  </clipPath>
 </defs>
</svg>
